<svg width="24" height="24" viewBox="0 0 24 24" fill="none" xmlns="http://www.w3.org/2000/svg">
<g clip-path="url(#clip0_279_8029)">
<path d="M18.9998 20.75L16.6898 11.75C17.5439 10.6874 18.0064 9.36329 17.9998 8C17.9998 6.4087 17.3677 4.88258 16.2424 3.75736C15.1172 2.63214 13.5911 2 11.9998 2C10.4085 2 8.88237 2.63214 7.75715 3.75736C6.63193 4.88258 5.99979 6.4087 5.99979 8C5.99705 9.37381 6.4706 10.7061 7.33979 11.77L4.99979 20.75C4.95002 20.9419 4.95843 21.1443 5.02395 21.3315C5.08947 21.5186 5.20915 21.6821 5.36777 21.801C5.5264 21.92 5.71681 21.9891 5.91482 21.9996C6.11282 22.0101 6.30947 21.9615 6.47979 21.86L11.8098 18.73L17.4898 21.87C17.6433 21.9626 17.8207 22.0078 17.9998 22C18.1551 22.005 18.3094 21.9737 18.4504 21.9086C18.5915 21.8435 18.7155 21.7465 18.8125 21.6252C18.9096 21.5039 18.977 21.3616 19.0095 21.2097C19.0421 21.0578 19.0387 20.9004 18.9998 20.75ZM11.9998 4C12.7909 4 13.5643 4.2346 14.2221 4.67412C14.8799 5.11365 15.3926 5.73836 15.6953 6.46927C15.9981 7.20017 16.0773 8.00444 15.9229 8.78036C15.7686 9.55629 15.3876 10.269 14.8282 10.8284C14.2688 11.3878 13.5561 11.7688 12.7802 11.9231C12.0042 12.0775 11.2 11.9983 10.4691 11.6955C9.73815 11.3928 9.11344 10.8801 8.67392 10.2223C8.23439 9.56448 7.99979 8.79113 7.99979 8C7.99979 6.93913 8.42122 5.92172 9.17137 5.17157C9.92151 4.42143 10.9389 4 11.9998 4ZM12.3098 16.71C12.1578 16.6222 11.9853 16.576 11.8098 16.576C11.6343 16.576 11.4618 16.6222 11.3098 16.71L7.55979 18.91L8.99979 13.21C9.90041 13.7276 10.921 14 11.9598 14C12.9986 14 14.0192 13.7276 14.9198 13.21L16.4498 19L12.3098 16.71Z" fill="white"/>
</g>
<defs>
<clipPath id="clip0_279_8029">
<rect width="24" height="24" fill="white"/>
</clipPath>
</defs>
</svg>
