<svg width="20" height="21" viewBox="0 0 20 21" fill="none" xmlns="http://www.w3.org/2000/svg">
<g clip-path="url(#clip0_1487_5626)">
<path d="M7.5 3H4.16667C3.72464 3 3.30072 3.17559 2.98816 3.48816C2.67559 3.80072 2.5 4.22464 2.5 4.66667V8C2.5 8.44203 2.67559 8.86595 2.98816 9.17851C3.30072 9.49107 3.72464 9.66667 4.16667 9.66667H7.5C7.94203 9.66667 8.36595 9.49107 8.67851 9.17851C8.99107 8.86595 9.16667 8.44203 9.16667 8V4.66667C9.16667 4.22464 8.99107 3.80072 8.67851 3.48816C8.36595 3.17559 7.94203 3 7.5 3ZM4.16667 8V4.66667H7.5V8H4.16667Z" fill="white"/>
<path d="M15.8335 3H12.5002C12.0581 3 11.6342 3.17559 11.3217 3.48816C11.0091 3.80072 10.8335 4.22464 10.8335 4.66667V8C10.8335 8.44203 11.0091 8.86595 11.3217 9.17851C11.6342 9.49107 12.0581 9.66667 12.5002 9.66667H15.8335C16.2755 9.66667 16.6994 9.49107 17.012 9.17851C17.3246 8.86595 17.5002 8.44203 17.5002 8V4.66667C17.5002 4.22464 17.3246 3.80072 17.012 3.48816C16.6994 3.17559 16.2755 3 15.8335 3ZM12.5002 8V4.66667H15.8335V8H12.5002Z" fill="white"/>
<path d="M7.5 11.333H4.16667C3.72464 11.333 3.30072 11.5086 2.98816 11.8212C2.67559 12.1337 2.5 12.5576 2.5 12.9997V16.333C2.5 16.775 2.67559 17.199 2.98816 17.5115C3.30072 17.8241 3.72464 17.9997 4.16667 17.9997H7.5C7.94203 17.9997 8.36595 17.8241 8.67851 17.5115C8.99107 17.199 9.16667 16.775 9.16667 16.333V12.9997C9.16667 12.5576 8.99107 12.1337 8.67851 11.8212C8.36595 11.5086 7.94203 11.333 7.5 11.333ZM4.16667 16.333V12.9997H7.5V16.333H4.16667Z" fill="white"/>
<path d="M15.8335 11.333H12.5002C12.0581 11.333 11.6342 11.5086 11.3217 11.8212C11.0091 12.1337 10.8335 12.5576 10.8335 12.9997V16.333C10.8335 16.775 11.0091 17.199 11.3217 17.5115C11.6342 17.8241 12.0581 17.9997 12.5002 17.9997H15.8335C16.2755 17.9997 16.6994 17.8241 17.012 17.5115C17.3246 17.199 17.5002 16.775 17.5002 16.333V12.9997C17.5002 12.5576 17.3246 12.1337 17.012 11.8212C16.6994 11.5086 16.2755 11.333 15.8335 11.333ZM12.5002 16.333V12.9997H15.8335V16.333H12.5002Z" fill="white"/>
</g>
<defs>
<clipPath id="clip0_1487_5626">
<rect width="20" height="20" fill="white" transform="translate(0 0.5)"/>
</clipPath>
</defs>
</svg>
