<svg width="20" height="21" viewBox="0 0 20 21" fill="none" xmlns="http://www.w3.org/2000/svg">
<path d="M9.99984 9.66667C10.6591 9.66667 11.3036 9.47117 11.8517 9.1049C12.3999 8.73863 12.8271 8.21803 13.0794 7.60895C13.3317 6.99986 13.3977 6.32964 13.2691 5.68303C13.1405 5.03643 12.823 4.44249 12.3569 3.97631C11.8907 3.51014 11.2967 3.19267 10.6501 3.06405C10.0035 2.93543 9.33331 3.00144 8.72423 3.25374C8.11514 3.50603 7.59454 3.93327 7.22827 4.48143C6.862 5.0296 6.6665 5.67406 6.6665 6.33334C6.6665 7.21739 7.01769 8.06524 7.64281 8.69036C8.26794 9.31548 9.11578 9.66667 9.99984 9.66667ZM9.99984 4.66667C10.3295 4.66667 10.6517 4.76442 10.9258 4.94755C11.1999 5.13069 11.4135 5.39099 11.5396 5.69553C11.6658 6.00007 11.6988 6.33518 11.6345 6.65849C11.5702 6.98179 11.4114 7.27876 11.1783 7.51185C10.9453 7.74493 10.6483 7.90367 10.325 7.96798C10.0017 8.03229 9.66658 7.99928 9.36203 7.87313C9.05749 7.74699 8.79719 7.53337 8.61405 7.25929C8.43092 6.9852 8.33317 6.66297 8.33317 6.33334C8.33317 5.89131 8.50877 5.46738 8.82133 5.15482C9.13389 4.84226 9.55781 4.66667 9.99984 4.66667Z" fill="#2B2B2B"/>
<path d="M9.99984 11.333C8.45274 11.333 6.96901 11.9476 5.87505 13.0416C4.78109 14.1355 4.1665 15.6192 4.1665 17.1663C4.1665 17.3874 4.2543 17.5993 4.41058 17.7556C4.56686 17.9119 4.77882 17.9997 4.99984 17.9997C5.22085 17.9997 5.43281 17.9119 5.58909 17.7556C5.74537 17.5993 5.83317 17.3874 5.83317 17.1663C5.83317 16.0613 6.27216 15.0015 7.05356 14.2201C7.83496 13.4387 8.89477 12.9997 9.99984 12.9997C11.1049 12.9997 12.1647 13.4387 12.9461 14.2201C13.7275 15.0015 14.1665 16.0613 14.1665 17.1663C14.1665 17.3874 14.2543 17.5993 14.4106 17.7556C14.5669 17.9119 14.7788 17.9997 14.9998 17.9997C15.2209 17.9997 15.4328 17.9119 15.5891 17.7556C15.7454 17.5993 15.8332 17.3874 15.8332 17.1663C15.8332 15.6192 15.2186 14.1355 14.1246 13.0416C13.0307 11.9476 11.5469 11.333 9.99984 11.333Z" fill="#2B2B2B"/>
</svg>
